<svg width="16" height="16" viewBox="0 0 16 16" fill="none" xmlns="http://www.w3.org/2000/svg">
<rect x="4" y="3" width="10" height="12" rx="2" fill="#00B294"/>
<rect x="5" y="7" width="8" height="1" rx="0.5" fill="white"/>
<rect x="5" y="7" width="8" height="1" rx="0.5" fill="white"/>
<rect x="5" y="7" width="8" height="1" rx="0.5" fill="white"/>
<rect x="5" y="10" width="8" height="1" rx="0.5" fill="white"/>
<rect x="5" y="10" width="8" height="1" rx="0.5" fill="white"/>
<rect x="5" y="10" width="8" height="1" rx="0.5" fill="white"/>
<rect x="7" y="5" width="1" height="8" rx="0.5" fill="white"/>
<rect x="7" y="5" width="1" height="8" rx="0.5" fill="white"/>
<rect x="7" y="5" width="1" height="8" rx="0.5" fill="white"/>
<rect x="10" y="5" width="1" height="8" rx="0.5" fill="white"/>
<rect x="10" y="5" width="1" height="8" rx="0.5" fill="white"/>
<rect x="10" y="5" width="1" height="8" rx="0.5" fill="white"/>
<path d="M2.5 13.5V3C2.5 2.17157 3.17157 1.5 4 1.5H6.5H10.5" stroke="#00B294" stroke-linecap="round"/>
</svg>
