<svg width="16" height="16" viewBox="0 0 16 16" fill="none" xmlns="http://www.w3.org/2000/svg">
<path d="M7.5259 8.74472L3.13516 6.38047C2.43396 6.0029 2.43396 4.9971 3.13516 4.61953L7.5259 2.25528C7.82188 2.09591 8.17812 2.09591 8.4741 2.25528L12.8648 4.61953C13.566 4.9971 13.566 6.0029 12.8648 6.38047L8.4741 8.74472C8.17812 8.90409 7.82188 8.90409 7.5259 8.74472Z" fill="#00B294"/>
<path d="M3.5 8.5L7.51436 10.7302C7.81638 10.898 8.18362 10.898 8.48564 10.7302L12.5 8.5" stroke="#00B294" stroke-linecap="round"/>
<path d="M3.5 11L7.51436 13.2302C7.81638 13.398 8.18362 13.398 8.48564 13.2302L12.5 11" stroke="#00B294" stroke-linecap="round"/>
</svg>
