<svg width="16" height="16" viewBox="0 0 16 16" fill="none" xmlns="http://www.w3.org/2000/svg">
<mask id="path-1-inside-1_40_417" fill="white">
<path d="M12 5V4.26876C12 2.46489 10.2017 1 8 1C5.79827 1 4 2.46489 4 4.26876V5"/>
</mask>
<path d="M10.8 5V6.2H13.2V5H10.8ZM2.8 5V6.2H5.2V5H2.8ZM13.2 5V4.26876H10.8V5H13.2ZM13.2 4.26876C13.2 1.58605 10.6254 -0.2 8 -0.2V2.2C9.77803 2.2 10.8 3.34373 10.8 4.26876H13.2ZM8 -0.2C5.37457 -0.2 2.8 1.58605 2.8 4.26876H5.2C5.2 3.34373 6.22197 2.2 8 2.2V-0.2ZM2.8 4.26876V5H5.2V4.26876H2.8Z" fill="#767676" mask="url(#path-1-inside-1_40_417)"/>
<mask id="path-3-inside-2_40_417" fill="white">
<path d="M2 7C2 5.89543 2.89543 5 4 5H12C13.1046 5 14 5.89543 14 7V13C14 14.1046 13.1046 15 12 15H4C2.89543 15 2 14.1046 2 13V7Z"/>
</mask>
<path d="M2 7C2 5.89543 2.89543 5 4 5H12C13.1046 5 14 5.89543 14 7V13C14 14.1046 13.1046 15 12 15H4C2.89543 15 2 14.1046 2 13V7Z" fill="#767676"/>
<path d="M4 6.2H12V3.8H4V6.2ZM12.8 7V13H15.2V7H12.8ZM12 13.8H4V16.2H12V13.8ZM3.2 13V7H0.8V13H3.2ZM4 13.8C3.55817 13.8 3.2 13.4418 3.2 13H0.8C0.8 14.7673 2.23269 16.2 4 16.2V13.8ZM12.8 13C12.8 13.4418 12.4418 13.8 12 13.8V16.2C13.7673 16.2 15.2 14.7673 15.2 13H12.8ZM12 6.2C12.4418 6.2 12.8 6.55817 12.8 7H15.2C15.2 5.23269 13.7673 3.8 12 3.8V6.2ZM4 3.8C2.23269 3.8 0.8 5.23269 0.8 7H3.2C3.2 6.55817 3.55817 6.2 4 6.2V3.8Z" fill="#767676" mask="url(#path-3-inside-2_40_417)"/>
<circle cx="8" cy="10" r="1" fill="#767676"/>
</svg>
