<svg width="16" height="16" viewBox="0 0 16 16" fill="none" xmlns="http://www.w3.org/2000/svg">
<rect x="2" y="1" width="12" height="14" rx="2" fill="#00B294"/>
<rect x="4" y="6" width="8" height="1" rx="0.5" fill="white"/>
<rect x="4" y="6" width="8" height="1" rx="0.5" fill="white"/>
<rect x="4" y="6" width="8" height="1" rx="0.5" fill="white"/>
<rect x="4" y="9" width="8" height="1" rx="0.5" fill="white"/>
<rect x="4" y="9" width="8" height="1" rx="0.5" fill="white"/>
<rect x="4" y="9" width="8" height="1" rx="0.5" fill="white"/>
<rect x="6" y="4" width="1" height="8" rx="0.5" fill="white"/>
<rect x="6" y="4" width="1" height="8" rx="0.5" fill="white"/>
<rect x="6" y="4" width="1" height="8" rx="0.5" fill="white"/>
<rect x="9" y="4" width="1" height="8" rx="0.5" fill="white"/>
<rect x="9" y="4" width="1" height="8" rx="0.5" fill="white"/>
<rect x="9" y="4" width="1" height="8" rx="0.5" fill="white"/>
</svg>
