<svg width="16" height="16" viewBox="0 0 16 16" fill="none" xmlns="http://www.w3.org/2000/svg">
<path d="M5.75212 10.788C5.66773 10.7415 5.56819 10.7286 5.47671 10.7588C4.81314 10.9782 4.22856 11.371 3.79251 11.8925C3.32518 12.4515 3.05082 13.1315 3.00624 13.8413C2.9884 13.9728 3.00897 14.1063 3.06574 14.2277C3.12251 14.349 3.21333 14.4535 3.32847 14.53C3.77297 14.8669 4.2149 14.9933 4.78571 15H11.2143C11.834 14.992 12.2984 14.8291 12.7537 14.4336C12.8403 14.3733 12.9084 14.2924 12.9509 14.1992C12.9933 14.106 13.0087 14.0039 12.9953 13.9032C12.965 13.6179 12.9136 13.3348 12.8415 13.0561C12.6719 12.5036 12.3579 11.9998 11.928 11.5907C11.5337 11.2155 11.0535 10.9309 10.5248 10.7582C10.4334 10.7284 10.334 10.7416 10.2498 10.7883C9.56435 11.1682 8.78927 11.4863 8 11.4889C7.21116 11.484 6.43817 11.166 5.75212 10.788Z" fill="#0072C6"/>
<circle cx="4.5" cy="3" r="2" fill="#0072C6"/>
<circle cx="11.5" cy="3" r="2" fill="#0072C6"/>
<circle cx="8.00021" cy="7.65713" r="2.85714" fill="#0072C6"/>
<path fill-rule="evenodd" clip-rule="evenodd" d="M4.69596 5.67257C4.63084 5.6787 4.56549 5.68202 4.5 5.68224C3.94781 5.67878 3.40672 5.45618 2.92649 5.19159C2.86741 5.15905 2.79773 5.14999 2.73369 5.17115C2.2692 5.32469 1.85999 5.59967 1.55476 5.96474C1.22763 6.356 1.03557 6.83199 1.00437 7.32886C0.991882 7.42091 1.00628 7.51442 1.04602 7.59935C1.08576 7.68429 1.14933 7.75745 1.22993 7.81098C1.54108 8.04679 1.85043 8.1353 2.25 8.14H4.18092C4.16053 7.97953 4.15002 7.81598 4.15002 7.64998C4.15002 6.92698 4.34931 6.25053 4.69596 5.67257Z" fill="#0072C6"/>
<path fill-rule="evenodd" clip-rule="evenodd" d="M11.8191 8.14C11.8395 7.97953 11.85 7.81598 11.85 7.64998C11.85 6.92676 11.6506 6.25011 11.3037 5.67203C11.3689 5.67833 11.4343 5.68183 11.4999 5.68224C12.0524 5.68038 12.595 5.45772 13.0748 5.19178C13.1337 5.15912 13.2033 5.14982 13.2673 5.17074C13.6374 5.2916 13.9735 5.49081 14.2496 5.75349C14.5504 6.03983 14.7703 6.39247 14.889 6.77923C14.9394 6.97433 14.9754 7.17247 14.9967 7.37225C15.006 7.44268 14.9953 7.51418 14.9655 7.57941C14.9358 7.64465 14.8882 7.70128 14.8275 7.74349C14.5088 8.02034 14.1838 8.13438 13.7499 8.14H11.8191Z" fill="#0072C6"/>
</svg>
