<svg width="16" height="16" viewBox="0 0 16 16" fill="none" xmlns="http://www.w3.org/2000/svg">
<mask id="path-1-inside-1_40_411" fill="white">
<path fill-rule="evenodd" clip-rule="evenodd" d="M7.82281 14.7406L1.36652 8.07683C1.18578 7.89029 1.08472 7.64074 1.08472 7.381V2.02673C1.08472 1.47445 1.53243 1.02673 2.08472 1.02673H7.84223C8.11309 1.02673 8.37236 1.13661 8.56074 1.33122L14.8157 7.79308C15.1954 8.18535 15.1903 8.80966 14.8043 9.1957L9.24811 14.7519C8.85321 15.1468 8.21141 15.1417 7.82281 14.7406ZM4 5C4.55228 5 5 4.55228 5 4C5 3.44772 4.55228 3 4 3C3.44772 3 3 3.44772 3 4C3 4.55228 3.44772 5 4 5Z"/>
</mask>
<path fill-rule="evenodd" clip-rule="evenodd" d="M7.82281 14.7406L1.36652 8.07683C1.18578 7.89029 1.08472 7.64074 1.08472 7.381V2.02673C1.08472 1.47445 1.53243 1.02673 2.08472 1.02673H7.84223C8.11309 1.02673 8.37236 1.13661 8.56074 1.33122L14.8157 7.79308C15.1954 8.18535 15.1903 8.80966 14.8043 9.1957L9.24811 14.7519C8.85321 15.1468 8.21141 15.1417 7.82281 14.7406ZM4 5C4.55228 5 5 4.55228 5 4C5 3.44772 4.55228 3 4 3C3.44772 3 3 3.44772 3 4C3 4.55228 3.44772 5 4 5Z" fill="#8E8E8E"/>
<path d="M1.36652 8.07683L2.08472 7.38099H2.08472L1.36652 8.07683ZM7.82281 14.7406L7.10461 15.4365L7.82281 14.7406ZM8.56074 1.33122L7.84223 2.02673L7.84223 2.02673L8.56074 1.33122ZM14.8157 7.79308L14.0972 8.48859V8.48859L14.8157 7.79308ZM14.8043 9.1957L15.5114 9.9028H15.5114L14.8043 9.1957ZM0.648317 8.77267L7.10461 15.4365L8.54101 14.0448L2.08472 7.38099L0.648317 8.77267ZM0.0847168 7.381C0.0847168 7.90048 0.286842 8.39958 0.648317 8.77267L2.08472 7.38099L2.08472 7.381H0.0847168ZM0.0847168 2.02673V7.381H2.08472V2.02673H0.0847168ZM2.08472 0.0267334C0.980148 0.0267334 0.0847168 0.922162 0.0847168 2.02673H2.08472V2.02673V0.0267334ZM7.84223 0.0267334H2.08472V2.02673H7.84223V0.0267334ZM9.27926 0.635712C8.90249 0.24648 8.38394 0.0267334 7.84223 0.0267334V2.02673L7.84223 2.02673L9.27926 0.635712ZM15.5342 7.09757L9.27926 0.635712L7.84223 2.02673L14.0972 8.48859L15.5342 7.09757ZM15.5114 9.9028C16.2835 9.13072 16.2936 7.8821 15.5342 7.09757L14.0972 8.48859V8.48859L15.5114 9.9028ZM9.95522 15.459L15.5114 9.9028L14.0972 8.48859L8.54101 14.0448L9.95522 15.459ZM7.10461 15.4365C7.88182 16.2386 9.16542 16.2488 9.95522 15.459L8.54101 14.0448L8.54101 14.0448L7.10461 15.4365ZM4 4V6C5.10457 6 6 5.10457 6 4H4ZM4 4H6C6 2.89543 5.10457 2 4 2V4ZM4 4V2C2.89543 2 2 2.89543 2 4H4ZM4 4H2C2 5.10457 2.89543 6 4 6V4Z" fill="#8E8E8E" mask="url(#path-1-inside-1_40_411)"/>
</svg>
