<svg width="16" height="16" viewBox="0 0 16 16" fill="none" xmlns="http://www.w3.org/2000/svg">
<path d="M4.85297 9.10321C4.73482 9.03812 4.59547 9.02 4.46739 9.06233C3.5384 9.3694 2.71999 9.91937 2.10951 10.6495C1.45526 11.432 1.07115 12.384 1.00874 13.3777C0.983765 13.5618 1.01256 13.7489 1.09204 13.9187C1.17151 14.0886 1.29867 14.2349 1.45986 14.342C2.08216 14.8136 2.70086 14.9906 3.5 15H12.5C13.3676 14.9888 14.0177 14.7607 14.6551 14.207C14.7765 14.1226 14.8717 14.0093 14.9312 13.8788C14.9907 13.7484 15.0121 13.6054 14.9935 13.4645C14.9509 13.065 14.879 12.6687 14.7781 12.2785C14.5407 11.505 14.101 10.7997 13.4992 10.227C12.9472 9.70164 12.2749 9.30323 11.5348 9.0615C11.4067 9.01967 11.2676 9.03827 11.1498 9.10358C10.1901 9.63546 9.10498 10.0808 8 10.0845C6.89562 10.0776 5.81344 9.63239 4.85297 9.10321Z" fill="#0072C6"/>
<circle cx="8" cy="5" r="4" fill="#0072C6"/>
</svg>
